<?xml version="1.0" encoding="UTF-8"?>
<svg version="1.1" xmlns="http://www.w3.org/2000/svg" width="72" height="72">
<path d="M0 0 C23.76 0 47.52 0 72 0 C72 23.76 72 47.52 72 72 C48.24 72 24.48 72 0 72 C0 48.24 0 24.48 0 0 Z " fill="#0D0E0F" transform="translate(0,0)"/>
<path d="M0 0 C14.52 0 29.04 0 44 0 C44 0.66 44 1.32 44 2 C44.66 2 45.32 2 46 2 C48.2493944 6.49878881 46.53012937 13.04216771 45.26171875 17.7265625 C44.55408255 19.83940993 43.81419378 21.92611017 43 24 C42.34 24 41.68 24 41 24 C40.67 33.9 40.34 43.8 40 54 C39.34 54 38.68 54 38 54 C38.77479736 56.99152582 38.77479736 56.99152582 40 60 C40.99 60.33 41.98 60.66 43 61 C42.505 61.99 42.505 61.99 42 63 C40.68 62.34 39.36 61.68 38 61 C38 61.66 38 62.32 38 63 C40.97 63.99 40.97 63.99 44 65 C39.58518777 66.3640756 35.93976871 65.32656139 31.5625 64.25 C30.81162109 64.07984375 30.06074219 63.9096875 29.28710938 63.734375 C25.01681745 62.71281 21.69750046 61.45385655 18 59 C16.96875 58.608125 15.9375 58.21625 14.875 57.8125 C13.58002301 57.21546169 12.28884677 56.61015911 11 56 C10.08903564 55.64832764 9.17807129 55.29665527 8.23950195 54.93432617 C4.72701567 53.1219101 1.99602292 51.43766576 0 48 C-1.92482484 40.08016462 -1.02634964 31.56729493 -0.6875 23.5 C-0.63228585 21.22407599 -0.58210226 18.94802402 -0.53710938 16.671875 C-0.42560582 11.10886144 -0.21055084 5.56364635 0 0 Z " fill="#0E0F10" transform="translate(0,0)"/>
<path d="M0 0 C9.24 0 18.48 0 28 0 C28 12.21 28 24.42 28 37 C26 34 26 34 26 32 C25.38125 31.71125 24.7625 31.4225 24.125 31.125 C22 30 22 30 20 28 C20.66 28 21.32 28 22 28 C22.33 27.34 22.66 26.68 23 26 C23.33 26.33 23.66 26.66 24 27 C24.33 26.34 24.66 25.68 25 25 C22.75059705 24.91880497 20.50035129 24.86072181 18.25 24.8125 C16.99703125 24.77769531 15.7440625 24.74289063 14.453125 24.70703125 C10.85890643 25.01197061 9.55274874 25.54394629 7 28 C5.68 26.68 4.36 25.36 3 24 C2.77480894 27.79086457 2.57270751 31.58261058 2.375 35.375 C2.31054688 36.45523438 2.24609375 37.53546875 2.1796875 38.6484375 C2.128125 39.6796875 2.0765625 40.7109375 2.0234375 41.7734375 C1.97106934 42.72653809 1.91870117 43.67963867 1.86474609 44.66162109 C1.75117976 47.19457674 1.75117976 47.19457674 4 49 C4 49.99 4 50.98 4 52 C5.32 52.33 6.64 52.66 8 53 C8 53.66 8 54.32 8 55 C7.36191406 55.10957031 6.72382812 55.21914063 6.06640625 55.33203125 C5.24011719 55.49058594 4.41382813 55.64914063 3.5625 55.8125 C2.73878906 55.96332031 1.91507813 56.11414062 1.06640625 56.26953125 C0.38449219 56.51058594 -0.29742187 56.75164063 -1 57 C-1.33 57.99 -1.66 58.98 -2 60 C-2.66 60 -3.32 60 -4 60 C-6 57 -6 57 -6 54 C-5.34 54 -4.68 54 -4 54 C-4.00523682 53.37544922 -4.01047363 52.75089844 -4.01586914 52.10742188 C-4.03684076 49.23829176 -4.04972376 46.36917785 -4.0625 43.5 C-4.07087891 42.51773438 -4.07925781 41.53546875 -4.08789062 40.5234375 C-4.10659124 34.91325243 -3.838879 29.54849101 -3 24 C-2.34 24 -1.68 24 -1 24 C-0.87625 22.80375 -0.7525 21.6075 -0.625 20.375 C-0.29862641 17.67887033 0.14603237 15.58767331 1.0625 13 C2.26274473 9.15921685 2.13835918 6.01241611 2 2 C1.34 2 0.68 2 0 2 C0 1.34 0 0.68 0 0 Z " fill="#0E0E0C" transform="translate(44,0)"/>
<path d="M0 0 C3.2335312 1.94011872 6.29185727 3.862948 9.375 6 C19.25870684 12.57833603 31.00356834 16.27539206 42.85546875 16.7265625 C45 17 45 17 47 19 C44.03 19.33 41.06 19.66 38 20 C39.32 20.66 40.64 21.32 42 22 C38.07342289 24.66380466 33.84612391 24.25324779 29.296875 24.1953125 C28.45908508 24.1924826 27.62129517 24.18965271 26.75811768 24.18673706 C24.08859837 24.17556349 21.4194175 24.15046421 18.75 24.125 C16.93750485 24.11496654 15.12500444 24.10584133 13.3125 24.09765625 C8.87476546 24.07733695 4.43776052 24.03818341 0 24 C0 16.08 0 8.16 0 0 Z " fill="#0E1011" transform="translate(0,48)"/>
<path d="M0 0 C0 0.66 0 1.32 0 2 C0.61875 2.309375 1.2375 2.61875 1.875 2.9375 C3.25 3.625 4.625 4.3125 6 5 C7.25656518 10.19439269 7.64193737 14.61736566 5.375 19.5 C1.88366433 23.17509018 -0.35268798 24.79034211 -5.4375 25.4375 C-9.70968693 24.91284546 -11.75031771 23.79623825 -15 21 C-17.60143442 16.86135433 -17.85356008 11.75062227 -17 7 C-11.98995868 0.45911272 -7.78155289 -0.2593851 0 0 Z " fill="#32A353" transform="translate(64,27)"/>
<path d="M0 0 C1.16402344 0.02320312 1.16402344 0.02320312 2.3515625 0.046875 C4.375 0.25 4.375 0.25 6.375 1.25 C6.54539122 5.68017167 6.35046445 8.35520554 4.375 12.25 C2.68092656 20.59484308 3.25908142 29.39858058 3.3125 37.875 C3.31752803 39.27473797 3.32208862 40.6744777 3.32617188 42.07421875 C3.33786833 45.46619169 3.35425914 48.85807233 3.375 52.25 C-1.75636474 45.53071337 -4.86902645 38.48956819 -6.625 30.25 C-6.96402344 29.22777344 -7.30304687 28.20554687 -7.65234375 27.15234375 C-9.00212851 22.47445901 -8.99292597 17.83863547 -9 13 C-9.02449219 12.1028125 -9.04898437 11.205625 -9.07421875 10.28125 C-9.1032036 3.82729083 -9.1032036 3.82729083 -6.890625 1.15625 C-4.40409972 0.16163989 -2.67038142 -0.08931042 0 0 Z " fill="#425BF6" transform="translate(36.625,1.75)"/>
<path d="M0 0 C2.71074175 2.71074175 2.69939923 5.48434539 3.25 9.125 C5.32863184 21.24667666 9.02435339 32.40339503 16.6796875 42.1796875 C18 44 18 44 18 46 C10.0904456 42.24690767 4.51689227 36.67190667 -1 30 C-1.845625 29.113125 -2.69125 28.22625 -3.5625 27.3125 C-8.64371732 21.16422704 -12.51851096 13.00677389 -12 5 C-11.01 4.67 -10.02 4.34 -9 4 C-9 3.34 -9 2.68 -9 2 C-5.88401212 0.15348866 -3.61754103 -0.38079379 0 0 Z " fill="#5F92E8" transform="translate(22,14)"/>
<path d="M0 0 C2.25 -0.3125 2.25 -0.3125 5 0 C6.875 1.9375 6.875 1.9375 9 5 C12.96164873 10.36958762 16.74468907 14.88714797 22 19 C22.73347656 19.78246094 23.46695312 20.56492187 24.22265625 21.37109375 C27.36237344 24.34300608 30.5384759 26.26418826 34.3125 28.3125 C34.95767578 28.67150391 35.60285156 29.03050781 36.26757812 29.40039062 C37.84089355 30.27445475 39.41987465 31.13830783 41 32 C36.58518777 33.3640756 32.93976871 32.32656139 28.5625 31.25 C27.81162109 31.07984375 27.06074219 30.9096875 26.28710938 30.734375 C22.01681745 29.71281 18.69750046 28.45385655 15 26 C13.96875 25.608125 12.9375 25.21625 11.875 24.8125 C6.32877364 22.4021666 1.05297321 19.54881568 -3 15 C-3.91620577 10.8414438 -3.68998419 7.18172238 -3 3 C-2.01 2.67 -1.02 2.34 0 2 C0 1.34 0 0.68 0 0 Z " fill="#76DAE5" transform="translate(3,33)"/>
<path d="M0 0 C1.63001953 0.01353516 1.63001953 0.01353516 3.29296875 0.02734375 C4.12441406 0.03894531 4.95585938 0.05054688 5.8125 0.0625 C5.8125 0.7225 5.8125 1.3825 5.8125 2.0625 C6.4725 2.0625 7.1325 2.0625 7.8125 2.0625 C10.0618944 6.56128881 8.34262937 13.10466771 7.07421875 17.7890625 C6.36658255 19.90190993 5.62669378 21.98861017 4.8125 24.0625 C4.1525 24.0625 3.4925 24.0625 2.8125 24.0625 C2.4825 32.3125 2.1525 40.5625 1.8125 49.0625 C1.4825 49.0625 1.1525 49.0625 0.8125 49.0625 C0.78309536 45.10418267 0.76556672 41.14589403 0.75 37.1875 C0.74162109 36.07890625 0.73324219 34.9703125 0.72460938 33.828125 C0.67278271 16.20705779 0.67278271 16.20705779 3.8125 10.0625 C4.19999213 7.73754723 4.54232839 5.40398732 4.8125 3.0625 C3.04200311 3.00839313 1.27103151 2.96965881 -0.5 2.9375 C-1.48613281 2.91429687 -2.47226562 2.89109375 -3.48828125 2.8671875 C-6.41156527 2.85567361 -6.41156527 2.85567361 -9.1875 5.0625 C-9.65132266 7.03741515 -9.65132266 7.03741515 -9.5859375 9.31640625 C-9.58980469 10.17169922 -9.59367187 11.02699219 -9.59765625 11.90820312 C-9.58605469 12.80474609 -9.57445312 13.70128906 -9.5625 14.625 C-9.57410156 15.49447266 -9.58570313 16.36394531 -9.59765625 17.25976562 C-9.5736546 22.62413526 -8.82710775 27.05897382 -6.91601562 32.07617188 C-6.19510634 34.041761 -5.72548955 35.95005516 -5.3125 38 C-4.3224736 42.33353663 -2.23254726 45.94082505 -0.015625 49.765625 C0.8125 52.0625 0.8125 52.0625 -0.046875 54.359375 C-0.42328125 54.92140625 -0.7996875 55.4834375 -1.1875 56.0625 C-5.03127368 49.75162336 -8.02308608 43.31874237 -10.5 36.375 C-10.75410645 35.67511963 -11.00821289 34.97523926 -11.27001953 34.25415039 C-12.90690482 29.51764311 -13.71153207 25.05176381 -14.1875 20.0625 C-13.1975 20.0625 -12.2075 20.0625 -11.1875 20.0625 C-11.21070313 18.94230469 -11.23390625 17.82210938 -11.2578125 16.66796875 C-11.27657237 15.19531916 -11.29477234 13.72266237 -11.3125 12.25 C-11.32925781 11.51201172 -11.34601562 10.77402344 -11.36328125 10.01367188 C-11.39824628 6.15003574 -11.38147555 4.35346332 -9.1875 1.0625 C-5.90230525 -0.03256492 -3.45086585 -0.03710608 0 0 Z " fill="#0C1534" transform="translate(38.1875,-0.0625)"/>
<path d="M0 0 C2.25 -0.3125 2.25 -0.3125 5 0 C8.13055054 3.04359081 9.64576855 5.63114543 10 10 C9.67 10.66 9.34 11.32 9 12 C9.99 11.67 10.98 11.34 12 11 C12.33 11.99 12.66 12.98 13 14 C10.89890962 15.86763589 9.49099207 16.92037966 6.6875 17.375 C3.07371478 16.8707509 0.30020147 15.55303599 -3 14 C-3 10.37 -3 6.74 -3 3 C-2.01 2.67 -1.02 2.34 0 2 C0 1.34 0 0.68 0 0 Z " fill="#7CE2F2" transform="translate(3,33)"/>
<path d="M0 0 C0.33 0 0.66 0 1 0 C1.17015625 0.6290625 1.3403125 1.258125 1.515625 1.90625 C3.14856099 7.67364095 5.24739717 12.68462901 8 18 C8 18.66 8 19.32 8 20 C8.99 20.33 9.98 20.66 11 21 C12.28125 22.55859375 12.28125 22.55859375 13.5 24.4375 C15.25977667 27.13920842 16.1990713 28.1327142 19 30 C19 30.66 19 31.32 19 32 C19.53625 32.226875 20.0725 32.45375 20.625 32.6875 C23 34 23 34 25.9375 36.5 C28.66778039 38.72880032 30.69025144 39.92919899 34 41 C33.505 41.99 33.505 41.99 33 43 C24.29736921 41.29731137 17.19508692 36.11919319 12 29 C11.22914062 28.41089844 10.45828125 27.82179688 9.6640625 27.21484375 C6.76708273 24.80635763 4.84880961 22.32711877 2.6875 19.25 C1.99011719 18.26515625 1.29273438 17.2803125 0.57421875 16.265625 C0.05472656 15.51796875 -0.46476563 14.7703125 -1 14 C-0.34 13.01 0.32 12.02 1 11 C0.67 10.01 0.34 9.02 0 8 C-0.12781786 5.32605036 -0.04391871 2.67904143 0 0 Z " fill="#0F2336" transform="translate(9,20)"/>
<path d="M0 0 C1.16402344 0.02320312 1.16402344 0.02320312 2.3515625 0.046875 C4.375 0.25 4.375 0.25 6.375 1.25 C6.54539122 5.68017167 6.35046445 8.35520554 4.375 12.25 C2.68092656 20.59484308 3.25908142 29.39858058 3.3125 37.875 C3.31752803 39.27473797 3.32208862 40.6744777 3.32617188 42.07421875 C3.33786833 45.46619169 3.35425914 48.85807233 3.375 52.25 C1.12426431 49.31459587 -0.66385246 46.44209865 -2.3125 43.125 C-2.74949219 42.25617187 -3.18648437 41.38734375 -3.63671875 40.4921875 C-4.625 38.25 -4.625 38.25 -4.625 36.25 C-3.965 36.25 -3.305 36.25 -2.625 36.25 C-2.625 37.24 -2.625 38.23 -2.625 39.25 C-1.965 39.25 -1.305 39.25 -0.625 39.25 C-0.58761719 38.19683594 -0.55023438 37.14367188 -0.51171875 36.05859375 C-0.13258541 27.25016512 0.81013873 18.92701759 2.75390625 10.32421875 C3.50702126 7.11925828 3.50702126 7.11925828 3.375 3.25 C-1.70803686 3.13679144 -1.70803686 3.13679144 -6.625 4.25 C-6.625 12.17 -6.625 20.09 -6.625 28.25 C-6.955 28.25 -7.285 28.25 -7.625 28.25 C-8.91109023 23.25202333 -8.88233193 18.2519525 -8.9375 13.125 C-8.96650391 12.21878906 -8.99550781 11.31257812 -9.02539062 10.37890625 C-9.0886175 3.81303886 -9.0886175 3.81303886 -6.89453125 1.1484375 C-4.40807459 0.16412591 -2.6667791 -0.08918994 0 0 Z " fill="#4053BB" transform="translate(36.625,1.75)"/>
<path d="M0 0 C2.375 1.0625 2.375 1.0625 4 3 C4.46913089 7.37855495 4.46943529 9.29584707 2 13 C1.34 13 0.68 13 0 13 C0 13.66 0 14.32 0 15 C-3.49644963 15.31785906 -5.397402 15.39644605 -8.375 13.4375 C-10.62340519 10.06489221 -10.56783945 7.97487617 -10 4 C-7.24846472 -0.12730291 -4.82246105 -0.70327557 0 0 Z " fill="#022010" transform="translate(62,32)"/>
<path d="M0 0 C0.33 0 0.66 0 1 0 C0.9685791 0.57967529 0.9371582 1.15935059 0.90478516 1.7565918 C0.77955847 4.39982592 0.70188074 7.04243633 0.625 9.6875 C0.57472656 10.59951172 0.52445313 11.51152344 0.47265625 12.45117188 C0.22330512 17.4049267 0.22330512 17.4049267 2.36230469 21.65478516 C3.86238415 22.83077338 5.4284583 23.92136967 7 25 C7 25.99 7 26.98 7 28 C8.32 28.33 9.64 28.66 11 29 C11 29.66 11 30.32 11 31 C10.36191406 31.10957031 9.72382812 31.21914063 9.06640625 31.33203125 C8.24011719 31.49058594 7.41382813 31.64914063 6.5625 31.8125 C5.32693359 32.03873047 5.32693359 32.03873047 4.06640625 32.26953125 C3.38449219 32.51058594 2.70257813 32.75164063 2 33 C1.67 33.99 1.34 34.98 1 36 C0.34 36 -0.32 36 -1 36 C-3 33 -3 33 -3 30 C-2.34 30 -1.68 30 -1 30 C-1.00523682 29.37544922 -1.01047363 28.75089844 -1.01586914 28.10742188 C-1.03684076 25.23829176 -1.04972376 22.36917785 -1.0625 19.5 C-1.07087891 18.51773438 -1.07925781 17.53546875 -1.08789062 16.5234375 C-1.10659124 10.91325243 -0.838879 5.54849101 0 0 Z " fill="#130C11" transform="translate(41,24)"/>
<path d="M0 0 C1.65 1.32 3.3 2.64 5 4 C5.35964844 3.51015625 5.71929687 3.0203125 6.08984375 2.515625 C8.8789326 0.30260563 11.05551045 0.67163152 14.5625 0.75 C15.71878906 0.76546875 16.87507813 0.7809375 18.06640625 0.796875 C21 1 21 1 23 2 C22.67 2.99 22.34 3.98 22 5 C19.37466933 5 16.7489658 4.95964406 14.125 4.875 C10.40017744 4.88889859 7.40924804 5.37654855 4 7 C0.85239029 11.91880704 1.83101327 17.35254123 2.1875 22.9375 C2.84703847 25.27802377 2.84703847 25.27802377 5.5625 26.3125 C6.366875 26.539375 7.17125 26.76625 8 27 C7.34 27.33 6.68 27.66 6 28 C6 28.66 6 29.32 6 30 C4.1875 29.875 4.1875 29.875 2 29 C-2.03431997 23.36717589 -1.14444309 17.69204047 -0.6875 11.125 C-0.62626953 10.05507813 -0.56503906 8.98515625 -0.50195312 7.8828125 C-0.34938529 5.25395126 -0.18164311 2.62698561 0 0 Z " fill="#051608" transform="translate(46,23)"/>
<path d="M0 0 C0.66 0.33 1.32 0.66 2 1 C2 5.95 2 10.9 2 16 C1.34 16 0.68 16 0 16 C-0.33 15.34 -0.66 14.68 -1 14 C-2.98 14.99 -2.98 14.99 -5 16 C-8.07692308 10.70769231 -8.07692308 10.70769231 -7.6875 7.125 C-7.460625 6.42375 -7.23375 5.7225 -7 5 C-5.02 5.495 -5.02 5.495 -3 6 C-2.814375 4.7934375 -2.814375 4.7934375 -2.625 3.5625 C-2.41875 2.716875 -2.2125 1.87125 -2 1 C-1.34 0.67 -0.68 0.34 0 0 Z " fill="#599AFC" transform="translate(20,16)"/>
<path d="M0 0 C2.16209574 2.16209574 2.87240321 4.13122501 4.00390625 6.921875 C5.58032978 10.21072722 7.69094529 13.11055769 9.79296875 16.08203125 C11 18 11 18 11 20 C8.0762431 18.62642293 5.52866443 17.05214734 2.9375 15.125 C2.26589844 14.63257813 1.59429687 14.14015625 0.90234375 13.6328125 C-1.08531958 11.92676882 -2.5092935 10.14550281 -4 8 C-3.34 7.67 -2.68 7.34 -2 7 C-1.26924352 4.6859378 -0.59861742 2.35171131 0 0 Z " fill="#5C91DD" transform="translate(29,40)"/>
<path d="M0 0 C3.85691628 1.85054064 7.54423295 3.99343074 11.25 6.125 C11.8996875 6.49753906 12.549375 6.87007812 13.21875 7.25390625 C14.81306224 8.16829121 16.4066079 9.08401256 18 10 C15.00126754 10.93380478 13.00940139 11.01219194 9.9609375 10.29296875 C9.21585938 10.11830078 8.47078125 9.94363281 7.703125 9.76367188 C6.93484375 9.57353516 6.1665625 9.38339844 5.375 9.1875 C4.59898438 9.00896484 3.82296875 8.83042969 3.0234375 8.64648438 C-2.73913393 7.26086607 -2.73913393 7.26086607 -5 5 C-3.35 4.34 -1.7 3.68 0 3 C0 2.01 0 1.02 0 0 Z " fill="#80CDDD" transform="translate(26,55)"/>
<path d="M0 0 C3.3 0.33 6.6 0.66 10 1 C10.66 2.98 11.32 4.96 12 7 C9.15916359 8.42041821 7.14522722 8.31452272 4 8 C1.625 6.25 1.625 6.25 0 4 C0 2.68 0 1.36 0 0 Z " fill="#84E0F7" transform="translate(15,52)"/>
<path d="M0 0 C0.66 0.33 1.32 0.66 2 1 C2 1.66 2 2.32 2 3 C2.53625 3.226875 3.0725 3.45375 3.625 3.6875 C6 5 6 5 8.9375 7.5 C11.66778039 9.72880032 13.69025144 10.92919899 17 12 C16.67 12.66 16.34 13.32 16 14 C9.19603711 12.66878987 4.48136179 9.12480746 -1 5 C-0.67 3.35 -0.34 1.7 0 0 Z " fill="#132944" transform="translate(26,49)"/>
<path d="M0 0 C0.33 0 0.66 0 1 0 C0.99476318 0.70608398 0.98952637 1.41216797 0.98413086 2.13964844 C0.96332587 5.34308988 0.95032859 8.5465171 0.9375 11.75 C0.92912109 12.86117187 0.92074219 13.97234375 0.91210938 15.1171875 C0.90888672 16.18710937 0.90566406 17.25703125 0.90234375 18.359375 C0.89710693 19.34389648 0.89187012 20.32841797 0.88647461 21.34277344 C0.98871598 23.73588105 1.39453689 25.69981046 2 28 C1.70630173 29.34262065 1.3721042 30.67696283 1 32 C1 33.32 1 34.64 1 36 C0.34 36 -0.32 36 -1 36 C-3 33 -3 33 -3 30 C-2.34 30 -1.68 30 -1 30 C-1.00523682 29.37544922 -1.01047363 28.75089844 -1.01586914 28.10742188 C-1.03684076 25.23829176 -1.04972376 22.36917785 -1.0625 19.5 C-1.07087891 18.51773438 -1.07925781 17.53546875 -1.08789062 16.5234375 C-1.10659124 10.91325243 -0.838879 5.54849101 0 0 Z " fill="#0D0A1B" transform="translate(41,24)"/>
<path d="M0 0 C2.52775351 3.79163027 2.22443035 6.80874031 2.125 11.1875 C2.11597656 11.93708984 2.10695313 12.68667969 2.09765625 13.45898438 C2.07412578 15.30612654 2.03825561 17.15310412 2 19 C-1.3 18.67 -4.6 18.34 -8 18 C-7.236875 17.443125 -6.47375 16.88625 -5.6875 16.3125 C-2.31899382 13.41401794 -0.17479341 11.25711492 0.1796875 6.6796875 C0.186695 4.44429435 0.13124757 2.23120869 0 0 Z " fill="#091F0F" transform="translate(70,34)"/>
<path d="M0 0 C1.32 0.33 2.64 0.66 4 1 C3.34 1 2.68 1 2 1 C-0.95723923 6.15471344 -0.17949829 11.18786009 0.1875 16.9375 C0.84703847 19.27802377 0.84703847 19.27802377 3.5625 20.3125 C4.366875 20.539375 5.17125 20.76625 6 21 C5.34 21.33 4.68 21.66 4 22 C4 22.66 4 23.32 4 24 C2.1875 23.875 2.1875 23.875 0 23 C-2.91159092 18.39803047 -3.30176222 15.18287242 -2.8125 9.8125 C-2.71582031 8.60207031 -2.61914062 7.39164063 -2.51953125 6.14453125 C-2 3 -2 3 0 0 Z " fill="#062A13" transform="translate(48,29)"/>
<path d="M0 0 C2.475 0.495 2.475 0.495 5 1 C5.33 1.99 5.66 2.98 6 4 C5.67 4.66 5.34 5.32 5 6 C5.99 5.67 6.98 5.34 8 5 C8.33 5.99 8.66 6.98 9 8 C6.64031256 10.09749995 5.45383006 10.96905704 2.25 11.1875 C1.5075 11.125625 0.765 11.06375 0 11 C0.66 10.67 1.32 10.34 2 10 C1.34 6.7 0.68 3.4 0 0 Z " fill="#79E8FB" transform="translate(7,39)"/>
<path d="M0 0 C0.66 0.33 1.32 0.66 2 1 C2 1.66 2 2.32 2 3 C2.99 3.33 3.98 3.66 5 4 C4.67 6.64 4.34 9.28 4 12 C3.01 12.33 2.02 12.66 1 13 C-2.06499261 6.74741507 -2.06499261 6.74741507 -1.75 3.125 C-1 1 -1 1 0 0 Z " fill="#6297FC" transform="translate(24,35)"/>
<path d="M0 0 C2.25 0.875 2.25 0.875 4 2 C3.34 2.66 2.68 3.32 2 4 C1.62599214 6.32716 1.29235267 8.66117862 1 11 C0 13 0 13 -2 16 C-4.3992233 11.35150485 -4.19957409 7.08913926 -4 2 C-2.140625 0.9453125 -2.140625 0.9453125 0 0 Z " fill="#2C8D4B" transform="translate(51,32)"/>
<path d="M0 0 C1.1446875 0.3403125 1.1446875 0.3403125 2.3125 0.6875 C2.3125 1.3475 2.3125 2.0075 2.3125 2.6875 C1.3225 3.0175 0.3325 3.3475 -0.6875 3.6875 C-0.6875 5.9975 -0.6875 8.3075 -0.6875 10.6875 C-2.0075 11.0175 -3.3275 11.3475 -4.6875 11.6875 C-6.21241998 8.63766004 -5.92312548 6.0451631 -5.6875 2.6875 C-3.97907171 -0.18985291 -3.34260852 -0.38867541 0 0 Z " fill="#01200E" transform="translate(57.6875,33.3125)"/>
<path d="M0 0 C1.0828125 1.11375 1.0828125 1.11375 2.1875 2.25 C4.89699658 5.01552388 4.89699658 5.01552388 7.8125 7.125 C8.534375 7.74375 9.25625 8.3625 10 9 C10 9.99 10 10.98 10 12 C5.545 11.01 5.545 11.01 1 10 C1 10.66 1 11.32 1 12 C-1.31 11.67 -3.62 11.34 -6 11 C-6 10.67 -6 10.34 -6 10 C-3.36 9.34 -0.72 8.68 2 8 C2 7.01 2 6.02 2 5 C1.34 5 0.68 5 0 5 C0 3.35 0 1.7 0 0 Z " fill="#87E5F7" transform="translate(12,40)"/>
<path d="M0 0 C1.32 0.33 2.64 0.66 4 1 C4.24954005 2.43410368 4.47392642 3.87260072 4.6875 5.3125 C4.81511719 6.11300781 4.94273438 6.91351563 5.07421875 7.73828125 C5 10 5 10 3.51953125 11.79296875 C3.01808594 12.19128906 2.51664062 12.58960938 2 13 C1.66127487 11.58461283 1.32925376 10.16762037 1 8.75 C0.814375 7.96109375 0.62875 7.1721875 0.4375 6.359375 C0 4 0 4 0 0 Z " fill="#21B151" transform="translate(66,33)"/>
<path d="M0 0 C0 0.66 0 1.32 0 2 C-3.3 2.66 -6.6 3.32 -10 4 C-9.67 4.66 -9.34 5.32 -9 6 C-9.99 6.33 -10.98 6.66 -12 7 C-12.33 6.67 -12.66 6.34 -13 6 C-13.66 6.66 -14.32 7.32 -15 8 C-14.875 5.6875 -14.875 5.6875 -14 3 C-9.32125724 -0.30935464 -5.50263621 -0.28461911 0 0 Z " fill="#399554" transform="translate(64,27)"/>
<path d="M0 0 C3.01217112 0.64449607 5.51655836 1.65022182 8.25 3.0625 C8.95640625 3.42472656 9.6628125 3.78695312 10.390625 4.16015625 C10.92171875 4.43730469 11.4528125 4.71445313 12 5 C8.72814447 6.07310858 6.57052408 5.89263102 3.25 5.0625 C2.45078125 4.86785156 1.6515625 4.67320313 0.828125 4.47265625 C-0.07679687 4.23869141 -0.07679687 4.23869141 -1 4 C-0.67 2.68 -0.34 1.36 0 0 Z " fill="#84C4CD" transform="translate(32,60)"/>
<path d="M0 0 C2.8203125 -0.29296875 2.8203125 -0.29296875 6.125 -0.1875 C7.76855469 -0.14689453 7.76855469 -0.14689453 9.4453125 -0.10546875 C10.28835937 -0.07066406 11.13140625 -0.03585938 12 0 C12 0.33 12 0.66 12 1 C11.07767578 1.07347656 11.07767578 1.07347656 10.13671875 1.1484375 C9.32847656 1.22320312 8.52023438 1.29796875 7.6875 1.375 C6.48673828 1.47941406 6.48673828 1.47941406 5.26171875 1.5859375 C2.72775559 1.89564426 2.72775559 1.89564426 0 4 C-0.38411275 6.609621 -0.60293197 9.0058074 -0.6875 11.625 C-0.72166016 12.33140625 -0.75582031 13.0378125 -0.79101562 13.765625 C-0.87351308 15.50985688 -0.93843335 17.25490395 -1 19 C-1.33 19 -1.66 19 -2 19 C-2.05394705 16.39555652 -2.09364469 13.79223002 -2.125 11.1875 C-2.14175781 10.44951172 -2.15851562 9.71152344 -2.17578125 8.95117188 C-2.21074628 5.08753574 -2.19397555 3.29096332 0 0 Z " fill="#0E1035" transform="translate(29,1)"/>
<path d="M0 0 C1.32 0 2.64 0 4 0 C4 0.66 4 1.32 4 2 C5.32 2.33 6.64 2.66 8 3 C8 3.99 8 4.98 8 6 C4.37 5.34 0.74 4.68 -3 4 C-2.01 2.68 -1.02 1.36 0 0 Z " fill="#091127" transform="translate(18,10)"/>
<path d="M0 0 C0.33 0 0.66 0 1 0 C1.36109542 1.64432706 1.71370076 3.2905208 2.0625 4.9375 C2.25972656 5.85402344 2.45695312 6.77054688 2.66015625 7.71484375 C2.77230469 8.46894531 2.88445312 9.22304688 3 10 C2 11 2 11 -0.5625 11.0625 C-1.366875 11.041875 -2.17125 11.02125 -3 11 C-3.33 10.01 -3.66 9.02 -4 8 C-3.525625 7.608125 -3.05125 7.21625 -2.5625 6.8125 C-0.64820367 4.59191626 -0.38733012 2.86624291 0 0 Z " fill="#2C944C" transform="translate(66,37)"/>
<path d="M0 0 C2.25 -0.3125 2.25 -0.3125 5 0 C9 4.10810811 9 4.10810811 9 7 C6.525 6.01 6.525 6.01 4 5 C4 4.34 4 3.68 4 3 C2.68 2.67 1.36 2.34 0 2 C0 1.34 0 0.68 0 0 Z " fill="#7CD1DC" transform="translate(3,33)"/>
<path d="M0 0 C1 1.33333333 2 2.66666667 3 4 C3.556875 4.70125 4.11375 5.4025 4.6875 6.125 C6 8 6 8 6 10 C2.63408134 8.55746343 0.48952921 6.66735273 -2 4 C-1.34 2.68 -0.68 1.36 0 0 Z " fill="#607DA9" transform="translate(34,50)"/>
<path d="M0 0 C2.64465038 3.1254959 3.84414715 6.08788267 5 10 C4.34 10.66 3.68 11.32 3 12 C2.10577086 10.7636832 1.23512109 9.51028438 0.375 8.25 C-0.11226562 7.55390625 -0.59953125 6.8578125 -1.1015625 6.140625 C-2 4 -2 4 -1.1484375 1.734375 C-0.76945312 1.16203125 -0.39046875 0.5896875 0 0 Z " fill="#09184A" transform="translate(34,44)"/>
<path d="M0 0 C1.98 0 3.96 0 6 0 C5.67 1.65 5.34 3.3 5 5 C3.35 5 1.7 5 0 5 C0 3.35 0 1.7 0 0 Z " fill="#369A4F" transform="translate(56,37)"/>
<path d="M0 0 C5.13186287 1.35558642 8.60072401 3.06714934 13 6 C12.01 6 11.02 6 10 6 C9.67 6.66 9.34 7.32 9 8 C7.49712782 6.85793642 5.99776716 5.71125043 4.5 4.5625 C3.6646875 3.92441406 2.829375 3.28632812 1.96875 2.62890625 C1.3190625 2.09136719 0.669375 1.55382813 0 1 C0 0.67 0 0.34 0 0 Z " fill="#79C5D3" transform="translate(0,47)"/>
<path d="M0 0 C0.33 0 0.66 0 1 0 C1.66 5.28 2.32 10.56 3 16 C2.01 16 1.02 16 0 16 C0 10.72 0 5.44 0 0 Z " fill="#6084D8" transform="translate(23,16)"/>
<path d="M0 0 C0.33 0 0.66 0 1 0 C1.33 7.26 1.66 14.52 2 22 C-1.375 17.5 -1.375 17.5 -1.07421875 13.671875 C-1.01943359 12.87265625 -0.96464844 12.0734375 -0.90820312 11.25 C-0.83537109 10.425 -0.76253906 9.6 -0.6875 8.75 C-0.62626953 7.90953125 -0.56503906 7.0690625 -0.50195312 6.203125 C-0.34914175 4.13429401 -0.17649838 2.06694492 0 0 Z " fill="#3C4C91" transform="translate(38,32)"/>
<path d="M0 0 C1.5625 1.25 1.5625 1.25 3 3 C2.6875 5.1875 2.6875 5.1875 2 7 C1.01 7 0.02 7 -1 7 C-1.625 4.625 -1.625 4.625 -2 2 C-1.34 1.34 -0.68 0.68 0 0 Z " fill="#559FF9" transform="translate(24,35)"/>
<path d="M0 0 C3.96 0.33 7.92 0.66 12 1 C9.38026734 3.61973266 7.64833578 3.70813314 4 4 C1.625 3.0625 1.625 3.0625 0 2 C0 1.34 0 0.68 0 0 Z " fill="#001A08" transform="translate(52,51)"/>
<path d="M0 0 C-0.5775 0.2475 -1.155 0.495 -1.75 0.75 C-4.11993416 1.92457068 -4.11993416 1.92457068 -6 4.0625 C-8.07852616 6.07607222 -9.18768658 6.59824094 -12 7 C-11.67 6.01 -11.34 5.02 -11 4 C-10.34 4 -9.68 4 -9 4 C-9 3.34 -9 2.68 -9 2 C-5.86501708 0.14223235 -3.62528568 -0.20140476 0 0 Z " fill="#5D84C3" transform="translate(22,14)"/>
<path d="M0 0 C7.57142857 1.85714286 7.57142857 1.85714286 10 5 C8.68 5.33 7.36 5.66 6 6 C6 5.01 6 4.02 6 3 C4.02 3.33 2.04 3.66 0 4 C0 2.68 0 1.36 0 0 Z " fill="#14222F" transform="translate(11,56)"/>
<path d="M0 0 C0.66 0.33 1.32 0.66 2 1 C2.40729228 3.32156597 2.74438677 5.6568787 3 8 C2.01 8.33 1.02 8.66 0 9 C-2 6 -2 6 -2 3 C-1.34 3 -0.68 3 0 3 C0 2.01 0 1.02 0 0 Z " fill="#12162D" transform="translate(40,51)"/>
<path d="M0 0 C3.33333333 3.33333333 6.66666667 6.66666667 10 10 C4.25 8.375 4.25 8.375 2 5 C1.34 5 0.68 5 0 5 C0 3.35 0 1.7 0 0 Z " fill="#87C4D3" transform="translate(12,40)"/>
<path d="M0 0 C0.99 0 1.98 0 3 0 C3.33 1.98 3.66 3.96 4 6 C2.35 6 0.7 6 -1 6 C-0.67 4.02 -0.34 2.04 0 0 Z " fill="#8DE2F9" transform="translate(2,35)"/>
<path d="M0 0 C2.31 0.66 4.62 1.32 7 2 C5.68 3.32 4.36 4.64 3 6 C2.01 5.67 1.02 5.34 0 5 C0 3.33333333 0 1.66666667 0 0 Z " fill="#7CEBF8" transform="translate(15,52)"/>
<path d="M0 0 C0.33 0 0.66 0 1 0 C1.2226746 1.43534841 1.42761906 2.87345525 1.625 4.3125 C1.74101563 5.11300781 1.85703125 5.91351563 1.9765625 6.73828125 C2 9 2 9 0 12 C-1.1898306 9.6203388 -1.13349966 8.08514265 -1.125 5.4375 C-1.12886719 4.22900391 -1.12886719 4.22900391 -1.1328125 2.99609375 C-1 1 -1 1 0 0 Z " fill="#25AC42" transform="translate(49,36)"/>
<path d="M0 0 C1.65 0.33 3.3 0.66 5 1 C5 1.66 5 2.32 5 3 C2.625 4.0625 2.625 4.0625 0 5 C-0.66 4.67 -1.32 4.34 -2 4 C-1.34 2.68 -0.68 1.36 0 0 Z " fill="#021A03" transform="translate(55,33)"/>
<path d="M0 0 C0.33 0 0.66 0 1 0 C1 4.62 1 9.24 1 14 C0.01 14 -0.98 14 -2 14 C-2 12.68 -2 11.36 -2 10 C-1.34 10 -0.68 10 0 10 C0 6.7 0 3.4 0 0 Z " fill="#050A11" transform="translate(26,6)"/>
<path d="M0 0 C2.97 0.495 2.97 0.495 6 1 C6 1.99 6 2.98 6 4 C3 4 3 4 0 2 C0 1.34 0 0.68 0 0 Z " fill="#81D2DD" transform="translate(10,53)"/>
<path d="M0 0 C0.66 0.33 1.32 0.66 2 1 C1.67 2.65 1.34 4.3 1 6 C-1.475 5.01 -1.475 5.01 -4 4 C-3.67 3.01 -3.34 2.02 -3 1 C-2.34 1.33 -1.68 1.66 -1 2 C-0.67 1.34 -0.34 0.68 0 0 Z " fill="#6A8DCF" transform="translate(32,48)"/>
<path d="M0 0 C2.13586678 3.20380017 2.23132175 4.01939967 2.125 7.6875 C2.10695313 8.49574219 2.08890625 9.30398437 2.0703125 10.13671875 C2.04710938 10.75160156 2.02390625 11.36648437 2 12 C1.01 12.33 0.02 12.66 -1 13 C-0.9278125 12.39671875 -0.855625 11.7934375 -0.78125 11.171875 C-0.6884375 10.37265625 -0.595625 9.5734375 -0.5 8.75 C-0.4071875 7.96109375 -0.314375 7.1721875 -0.21875 6.359375 C0.06154619 3.73109603 0.06154619 3.73109603 0 0 Z " fill="#0D5919" transform="translate(70,34)"/>
<path d="M0 0 C0.33 0.66 0.66 1.32 1 2 C-0.32 2 -1.64 2 -3 2 C-3 2.99 -3 3.98 -3 5 C-1.68 5.33 -0.36 5.66 1 6 C-1.875 6.125 -1.875 6.125 -5 6 C-5.66 5.34 -6.32 4.68 -7 4 C-4.82575883 1.49962266 -3.26954202 0.56371414 0 0 Z " fill="#103E16" transform="translate(61,41)"/>
<path d="M0 0 C1.32 0.33 2.64 0.66 4 1 C3.34099246 4.07536854 2.46132217 6.07735566 1 9 C0.67 6.03 0.34 3.06 0 0 Z " fill="#2DB05B" transform="translate(66,33)"/>
<path d="M0 0 C1.65 0.99 3.3 1.98 5 3 C4.67 3.99 4.34 4.98 4 6 C3.67 5.34 3.34 4.68 3 4 C2.34 4 1.68 4 1 4 C1 4.66 1 5.32 1 6 C0.01 5.67 -0.98 5.34 -2 5 C-1.34 4.67 -0.68 4.34 0 4 C0 2.68 0 1.36 0 0 Z " fill="#339347" transform="translate(65,29)"/>
<path d="M0 0 C1.32 0.66 2.64 1.32 4 2 C4 3.32 4 4.64 4 6 C2.35 4.35 0.7 2.7 -1 1 C-0.67 0.67 -0.34 0.34 0 0 Z " fill="#031221" transform="translate(21,46)"/>
<path d="M0 0 C0 0.99 0 1.98 0 3 C-1.98 3.33 -3.96 3.66 -6 4 C-6 3.01 -6 2.02 -6 1 C-3.92446352 0.4465236 -2.15634036 0 0 0 Z " fill="#0D0F03" transform="translate(64,42)"/>
<path d="M0 0 C1.98 0 3.96 0 6 0 C6.33 0.66 6.66 1.32 7 2 C6.01 3.485 6.01 3.485 5 5 C3.68 4.67 2.36 4.34 1 4 C1.99 4 2.98 4 4 4 C3.04134491 1.66924071 3.04134491 1.66924071 0 0 Z " fill="#0F3316" transform="translate(56,32)"/>
</svg>
